<svg xmlns="http://www.w3.org/2000/svg" viewBox="-160 178.2 104 68"><linearGradient id="a" gradientUnits="userSpaceOnUse" x1="-343.569" y1="1.622" x2="-342.757" y2="1.735" gradientTransform="matrix(104.194 0 0 65.752 35656.676 102.726)"><stop offset="0" stop-color="#f26622"/><stop offset="1" stop-color="#fab118"/></linearGradient><path d="M-120.2 203.2c9-9.7 17.4-22 31-23.5 1.3-.1 2.5-.2 3.7-.2 11.5 0 21.1 6.2 29.5 14.3-2-.5-3.8-.8-5.4-.8-3.1 0-5.7.8-7.7 1.8-7.7 4-11.4 8.9-18.4 16-9.1 9.2-15.3 17.5-24 27-4.5 5-11 7.4-17.5 7.4-2.4 0-4.9-.3-7.2-1-6.2-1.6-10.8-5.9-16.7-8.7-2.3-1.1-4.8-1.9-7.3-2.3 6.4-1.2 17.8-4.9 27.3-16.3l12.7-13.7z" fill="url(#a)"/></svg>